<?xml version="1.0" encoding="UTF-8"?>
<svg width="600" height="360" viewBox="0 0 600 360" fill="none" xmlns="http://www.w3.org/2000/svg">
  <defs>
    <linearGradient id="fade" x1="0" y1="0" x2="0" y2="1">
      <stop offset="0" stop-color="white" stop-opacity="0.55"/>
      <stop offset="1" stop-color="white" stop-opacity="0.20"/>
    </linearGradient>
    <filter id="soft" x="-20%" y="-20%" width="140%" height="140%">
      <feGaussianBlur stdDeviation="0.4"/>
    </filter>
  </defs>

  <!-- topographic-like wavy lines -->
  <g stroke="url(#fade)" stroke-width="1.2" filter="url(#soft)">
    <path d="M-20 70 C 80 40, 160 110, 260 80 C 360 50, 440 100, 560 70 L 620 60" />
    <path d="M-20 105 C 80 80, 160 135, 260 108 C 360 80, 440 125, 560 98 L 620 90" />
    <path d="M-20 140 C 80 120, 160 160, 260 138 C 360 114, 440 160, 560 140 L 620 130" />
    <path d="M-20 175 C 80 160, 160 190, 260 170 C 360 150, 440 195, 560 175 L 620 168" />
    <path d="M-20 210 C 80 198, 160 222, 260 205 C 360 188, 440 228, 560 210 L 620 204" />
    <path d="M-20 245 C 80 235, 160 255, 260 240 C 360 224, 440 260, 560 245 L 620 240" />
    <path d="M-20 280 C 80 272, 160 290, 260 278 C 360 266, 440 295, 560 282 L 620 280" />
    <path d="M-20 315 C 80 309, 160 325, 260 315 C 360 306, 440 330, 560 320 L 620 318" />
  </g>
</svg>
